<svg width="858" height="252" viewBox="0 0 858 252" fill="none" xmlns="http://www.w3.org/2000/svg">
<path d="M529.72 44.5037C510.97 45.8537 496.58 61.4137 488.66 77.0137C483.566 87.027 479.893 97.7804 477.64 109.274C473.366 131 473.636 152.727 478.45 174.454C483.06 195.274 495.37 219.624 517.41 226.454C523.216 228.254 529.033 228.644 534.86 227.624" stroke="#826A1B" style="stroke:#826A1B;stroke:color(display-p3 0.5098 0.4157 0.1059);stroke-opacity:1;" stroke-width="2"/>
<path d="M534.859 227.624C541.293 228.044 547.299 227.81 552.879 226.924C567.779 224.574 579.029 212.304 585.919 199.734C597.829 178.004 602.049 152.024 601.039 127.314" stroke="#6D4B04" style="stroke:#6D4B04;stroke:color(display-p3 0.4275 0.2941 0.0157);stroke-opacity:1;" stroke-width="2"/>
<path d="M601.041 127.314L599.781 110.964" stroke="#765C0E" style="stroke:#765C0E;stroke:color(display-p3 0.4627 0.3608 0.0549);stroke-opacity:1;" stroke-width="2"/>
<path d="M599.779 110.964C599.766 109.997 599.626 109.14 599.359 108.394" stroke="#82803D" style="stroke:#82803D;stroke:color(display-p3 0.5098 0.5020 0.2392);stroke-opacity:1;" stroke-width="2"/>
<path d="M599.361 108.394L598.891 105.364" stroke="#826A1B" style="stroke:#826A1B;stroke:color(display-p3 0.5098 0.4157 0.1059);stroke-opacity:1;" stroke-width="2"/>
<path d="M598.891 105.364L595.941 92.0137" stroke="#82803D" style="stroke:#82803D;stroke:color(display-p3 0.5098 0.5020 0.2392);stroke-opacity:1;" stroke-width="2"/>
<path d="M595.939 92.0137C594.093 84.9737 591.513 78.3004 588.199 71.9937" stroke="#826A1B" style="stroke:#826A1B;stroke:color(display-p3 0.5098 0.4157 0.1059);stroke-opacity:1;" stroke-width="2"/>
<path d="M588.201 71.9937C587.981 71.327 587.538 70.5737 586.871 69.7337" stroke="#82803D" style="stroke:#82803D;stroke:color(display-p3 0.5098 0.5020 0.2392);stroke-opacity:1;" stroke-width="2"/>
<path d="M586.869 69.7337C583.242 62.9204 578.709 57.2904 573.269 52.8437C568.229 48.7104 562.512 46.0404 556.119 44.8337C555.165 44.6537 554.199 44.5637 553.219 44.5637" stroke="#826A1B" style="stroke:#826A1B;stroke:color(display-p3 0.5098 0.4157 0.1059);stroke-opacity:1;" stroke-width="2"/>
<path d="M553.219 44.5637C545.379 43.6171 537.545 43.5971 529.719 44.5037" stroke="#6D4B04" style="stroke:#6D4B04;stroke:color(display-p3 0.4275 0.2941 0.0157);stroke-opacity:1;" stroke-width="2"/>
<path d="M553.219 44.5637L529.719 44.5037" stroke="#EAB01A" style="stroke:#EAB01A;stroke:color(display-p3 0.9176 0.6902 0.1020);stroke-opacity:1;" stroke-width="2"/>
<path d="M586.87 69.7337C583.104 75.067 579.35 80.3804 575.61 85.6737C575.357 86.0337 574.83 86.5104 574.03 87.1037C573.984 87.1367 573.931 87.1589 573.875 87.1686C573.819 87.1784 573.762 87.1755 573.707 87.1602C573.652 87.1448 573.602 87.1174 573.559 87.08C573.517 87.0425 573.483 86.9959 573.46 86.9437L571.08 81.1037C571.054 81.0444 571.041 80.9797 571.04 80.9137V78.5937C571.041 78.4413 571.006 78.291 570.941 78.1542C570.875 78.0174 570.779 77.8975 570.66 77.8037C569.407 76.8037 568.527 75.8137 568.02 74.8337C563.354 65.6604 556.757 58.4937 548.23 53.3337" stroke="#FFE553" style="stroke:#FFE553;stroke:color(display-p3 1.0000 0.8980 0.3255);stroke-opacity:1;" stroke-width="2"/>
<path d="M548.23 53.3337C547.303 53.087 545.88 52.2804 543.96 50.9137C538.75 47.2137 530.98 44.9837 524.38 46.8137C520.846 47.7937 518.56 48.5604 517.52 49.1137C515.066 50.427 512.32 52.0904 509.28 54.1037C506.426 55.9971 503.99 58.0904 501.97 60.3837C489.99 73.9537 482.82 91.5237 479.22 109.224C474.686 131.57 475.053 153.95 480.32 176.364C483.04 187.957 487.906 198.574 494.92 208.214C503.35 219.814 515.52 226.854 530.25 226.534C539.44 226.334 549.48 218.814 555.31 212.224C555.4 212.122 555.527 212.059 555.663 212.047C555.799 212.036 555.934 212.078 556.04 212.164C556.133 212.237 556.15 212.464 556.09 212.844" stroke="#F3C124" style="stroke:#F3C124;stroke:color(display-p3 0.9529 0.7569 0.1412);stroke-opacity:1;" stroke-width="2"/>
<path d="M556.089 212.844C550.716 219.03 543.639 223.957 534.859 227.624" stroke="#EAB01A" style="stroke:#EAB01A;stroke:color(display-p3 0.9176 0.6902 0.1020);stroke-opacity:1;" stroke-width="2"/>
<path d="M588.201 71.9937C588.234 72.347 588.104 72.6004 587.811 72.7537C587.758 72.7817 587.699 72.7972 587.64 72.799C587.581 72.8007 587.523 72.7886 587.471 72.7637C587.398 72.7237 587.328 72.6904 587.261 72.6637C587.204 72.6382 587.139 72.6332 587.078 72.6495C587.016 72.6659 586.961 72.7025 586.921 72.7537C584.228 76.3737 581.114 80.6704 577.581 85.6437C576.441 87.2504 575.451 88.9204 574.611 90.6537C574.513 90.8578 574.471 91.0842 574.488 91.31C574.506 91.5358 574.584 91.7528 574.713 91.9388C574.842 92.1249 575.018 92.2734 575.223 92.3691C575.429 92.4648 575.656 92.5044 575.881 92.4837C582.608 91.8237 589.294 91.667 595.941 92.0137" stroke="#FFE553" style="stroke:#FFE553;stroke:color(display-p3 1.0000 0.8980 0.3255);stroke-opacity:1;" stroke-width="2"/>
<path d="M598.892 105.364H578.472C578.436 105.363 578.4 105.37 578.367 105.385C578.334 105.4 578.305 105.423 578.282 105.451C578.259 105.479 578.242 105.511 578.233 105.546C578.225 105.582 578.224 105.618 578.232 105.654L578.702 108.154C578.716 108.228 578.755 108.294 578.811 108.342C578.868 108.389 578.939 108.415 579.012 108.414L599.362 108.394" stroke="#FFE553" style="stroke:#FFE553;stroke:color(display-p3 1.0000 0.8980 0.3255);stroke-opacity:1;" stroke-width="2"/>
<path d="M599.781 110.964L579.381 110.934C579.336 110.933 579.29 110.943 579.249 110.961C579.207 110.98 579.17 111.007 579.139 111.041C579.109 111.075 579.086 111.115 579.073 111.159C579.059 111.203 579.055 111.248 579.061 111.294L580.361 121.254" stroke="#F3D746" style="stroke:#F3D746;stroke:color(display-p3 0.9529 0.8431 0.2745);stroke-opacity:1;" stroke-width="2"/>
<path d="M580.359 121.254L580.399 122.904" stroke="#E9C63C" style="stroke:#E9C63C;stroke:color(display-p3 0.9137 0.7765 0.2353);stroke-opacity:1;" stroke-width="2"/>
<path d="M580.398 122.904L580.828 127.214" stroke="#F3D746" style="stroke:#F3D746;stroke:color(display-p3 0.9529 0.8431 0.2745);stroke-opacity:1;" stroke-width="2"/>
<path d="M580.83 127.214C581.124 134.194 581.18 139.474 581 143.054C579.98 163.247 574.857 182.31 565.63 200.244C564.897 201.664 563.847 203.204 562.48 204.864" stroke="#E9C63C" style="stroke:#E9C63C;stroke:color(display-p3 0.9137 0.7765 0.2353);stroke-opacity:1;" stroke-width="2"/>
<path d="M568.949 104.034L566.979 110.764C566.948 110.865 566.885 110.953 566.8 111.016C566.715 111.078 566.611 111.111 566.505 111.11C566.4 111.109 566.297 111.074 566.213 111.009C566.129 110.945 566.068 110.856 566.039 110.754L565.449 108.654" stroke="#FFE553" style="stroke:#FFE553;stroke:color(display-p3 1.0000 0.8980 0.3255);stroke-opacity:1;" stroke-width="2"/>
<path d="M548.231 53.3337C555.804 61.0937 561.531 69.4804 565.411 78.4937C565.539 78.7983 565.561 79.1366 565.474 79.454C565.387 79.7715 565.195 80.0497 564.931 80.2437L564.811 80.3337C564.687 80.4239 564.545 80.4869 564.395 80.5187C564.245 80.5505 564.089 80.5504 563.939 80.5184C563.788 80.4864 563.646 80.4232 563.52 80.3328C563.395 80.2425 563.289 80.127 563.211 79.9937C561.791 77.567 559.664 75.5037 556.831 73.8037C556.526 73.6179 556.243 73.3892 555.991 73.1237C552.411 69.3037 549.054 66.5137 545.921 64.7537C545.428 64.4737 545.077 64.617 544.871 65.1837C544.821 65.3182 544.742 65.4398 544.64 65.5401C544.538 65.6403 544.415 65.7166 544.281 65.7637C543.788 65.937 543.141 65.9437 542.341 65.7837C542.203 65.7559 542.061 65.7754 541.936 65.8392C541.811 65.9029 541.711 66.0071 541.653 66.1348C541.595 66.2625 541.582 66.406 541.616 66.542C541.65 66.678 541.729 66.7985 541.841 66.8837C548.808 72.0704 554.364 78.8904 558.511 87.3437C558.556 87.436 558.574 87.5391 558.564 87.6413C558.554 87.7434 558.517 87.8406 558.455 87.9218C558.394 88.003 558.311 88.065 558.217 88.1007C558.122 88.1364 558.02 88.1443 557.921 88.1237C556.881 87.9171 556.134 88.1337 555.681 88.7737C555.609 88.8712 555.568 88.9871 555.56 89.1076C555.553 89.2282 555.58 89.3483 555.639 89.4536C555.699 89.559 555.787 89.6452 555.893 89.702C556 89.7587 556.12 89.7836 556.241 89.7737L558.781 89.6037C558.921 89.5954 559.059 89.6307 559.176 89.7044C559.293 89.7782 559.382 89.8865 559.431 90.0137L560.461 92.6437C560.491 92.7213 560.502 92.8049 560.494 92.8876C560.486 92.9704 560.458 93.0501 560.413 93.1202C560.368 93.1903 560.308 93.2489 560.236 93.2912C560.164 93.3335 560.084 93.3583 560.001 93.3637L552.181 93.8937C552.04 93.9067 551.909 93.9704 551.812 94.073C551.716 94.1756 551.659 94.3101 551.654 94.4511C551.65 94.5922 551.696 94.7301 551.786 94.8392C551.875 94.9483 552.002 95.021 552.141 95.0437L559.831 96.0637C559.95 96.0809 560.064 96.1274 560.16 96.199C560.257 96.2706 560.335 96.365 560.386 96.4735C560.436 96.5821 560.459 96.7012 560.451 96.8201C560.443 96.9389 560.405 97.0536 560.341 97.1537C559.774 98.0471 558.927 98.7737 557.801 99.3337C557.676 99.3966 557.575 99.4988 557.513 99.6245C557.452 99.7503 557.433 99.8927 557.461 100.03C557.488 100.167 557.559 100.292 557.664 100.385C557.769 100.477 557.901 100.533 558.041 100.544C558.901 100.61 560.237 99.967 562.051 98.6137C562.153 98.5355 562.275 98.4866 562.402 98.4721C562.53 98.4577 562.66 98.4783 562.777 98.5317C562.894 98.5851 562.994 98.6693 563.067 98.7754C563.14 98.8814 563.183 99.0053 563.191 99.1337L563.271 100.314C563.29 100.64 563.179 100.966 562.961 101.224C561.868 102.484 560.277 103.617 558.191 104.624C558.13 104.655 558.082 104.707 558.054 104.77C558.026 104.833 558.019 104.903 558.035 104.968C558.052 105.034 558.09 105.091 558.144 105.13C558.198 105.17 558.264 105.188 558.331 105.184C560.258 105.084 561.894 104.444 563.241 103.264C563.371 103.153 563.534 103.09 563.705 103.085C563.875 103.079 564.042 103.132 564.178 103.235C564.315 103.337 564.412 103.483 564.454 103.648C564.497 103.814 564.481 103.988 564.411 104.144L561.301 110.634C561.279 110.685 561.273 110.741 561.283 110.796C561.293 110.851 561.318 110.901 561.356 110.941C561.393 110.981 561.441 111.008 561.494 111.019C561.547 111.03 561.601 111.025 561.651 111.004L562.711 110.544C562.729 110.537 562.746 110.527 562.76 110.513C562.774 110.499 562.784 110.482 562.791 110.464C563.424 108.81 564.341 107.387 565.541 106.194C565.572 106.16 565.613 106.139 565.658 106.132C565.703 106.125 565.749 106.134 565.789 106.156C565.83 106.179 565.862 106.214 565.882 106.257C565.903 106.299 565.909 106.348 565.901 106.394L565.451 108.654" stroke="#F3D746" style="stroke:#F3D746;stroke:color(display-p3 0.9529 0.8431 0.2745);stroke-opacity:1;" stroke-width="2"/>
<path d="M565.45 108.654C565.21 111.254 566.34 113.844 566.54 115.594C566.9 118.924 567.83 122.284 568 126.364C568.426 136.544 568.256 146.257 567.49 155.504C567.29 157.95 566.956 160.387 566.49 162.814C565.736 166.687 565.32 169.13 565.24 170.144C565.231 170.24 565.26 170.337 565.32 170.411C565.38 170.486 565.466 170.534 565.56 170.544L565.93 170.594C566.013 170.604 566.096 170.585 566.166 170.539C566.236 170.493 566.287 170.424 566.31 170.344C567.643 165.73 568.673 160.687 569.4 155.214C570.707 145.36 570.963 135.207 570.17 124.754C569.643 117.767 569.236 110.86 568.95 104.034" stroke="#F3C124" style="stroke:#F3C124;stroke:color(display-p3 0.9529 0.7569 0.1412);stroke-opacity:1;" stroke-width="2"/>
<path d="M568.95 104.034C570.017 102.907 570.807 101.467 571.32 99.7137C571.345 99.6357 571.394 99.5674 571.46 99.5187C571.526 99.4699 571.605 99.443 571.687 99.4419C571.769 99.4408 571.849 99.4655 571.916 99.5125C571.983 99.5595 572.034 99.6264 572.06 99.7037C575.427 110.237 577.48 121.247 578.22 132.734C578.63 139.204 578.22 146.314 578.03 152.754C578.017 153.078 577.95 153.396 577.83 153.694C577 155.824 577.29 157.854 576.83 160.224C575.904 165.024 575.15 168.807 574.57 171.574C573.744 175.5 572.7 179.204 571.44 182.684C569.08 189.19 567.674 192.9 567.22 193.814C564.78 198.694 563.2 202.377 562.48 204.864" stroke="#F3D746" style="stroke:#F3D746;stroke:color(display-p3 0.9529 0.8431 0.2745);stroke-opacity:1;" stroke-width="2"/>
<path d="M562.48 204.864C561.387 207.404 559.257 210.064 556.09 212.844" stroke="#DEA20D" style="stroke:#DEA20D;stroke:color(display-p3 0.8706 0.6353 0.0510);stroke-opacity:1;" stroke-width="2"/>
<path d="M601.038 127.314L580.828 127.214" stroke="#DEA20D" style="stroke:#DEA20D;stroke:color(display-p3 0.8706 0.6353 0.0510);stroke-opacity:1;" stroke-width="2"/>
<path d="M580.399 122.904L598.789 123.184C598.902 123.187 599.013 123.162 599.113 123.111C599.214 123.06 599.3 122.986 599.365 122.893C599.429 122.801 599.469 122.695 599.482 122.583C599.496 122.471 599.481 122.358 599.439 122.254L599.269 121.844C599.199 121.664 599.076 121.509 598.917 121.4C598.759 121.291 598.571 121.233 598.379 121.234L580.359 121.254" stroke="#DEA20D" style="stroke:#DEA20D;stroke:color(display-p3 0.8706 0.6353 0.0510);stroke-opacity:1;" stroke-width="2"/>
<path d="M519.729 63.4237L510.429 64.1737C510.161 64.1933 509.902 64.2866 509.679 64.4437C500.279 70.9737 493.199 82.2237 489.139 93.0337C483.626 107.714 481.249 123.117 482.009 139.244C482.083 140.784 482.196 142.07 482.349 143.104C482.616 144.91 482.609 146.337 482.329 147.384C482.219 147.774 482.236 148.19 482.379 148.574C482.579 149.107 482.816 151.694 483.089 156.334C483.363 161.094 484.673 167.094 487.019 174.334" stroke="#F3C124" style="stroke:#F3C124;stroke:color(display-p3 0.9529 0.7569 0.1412);stroke-opacity:1;" stroke-width="2"/>
<path d="M487.02 174.334C490.06 187.634 496.88 200.124 507.63 208.624C509.49 210.094 511.03 210.594 513.14 211.614C513.446 211.764 513.794 211.819 514.14 211.774C516.06 211.52 517.766 210.91 519.26 209.944" stroke="#F3D746" style="stroke:#F3D746;stroke:color(display-p3 0.9529 0.8431 0.2745);stroke-opacity:1;" stroke-width="2"/>
<path d="M519.262 209.944C523.962 211.557 528.568 211.787 533.082 210.634C535.282 210.064 536.372 209.234 538.212 208.534C539.232 208.147 540.425 207.47 541.792 206.504C549.352 201.17 555.068 193.744 558.942 184.224C559.02 184.032 559.023 183.817 558.951 183.621C558.879 183.426 558.737 183.263 558.552 183.164L558.522 183.144C558.433 183.097 558.336 183.068 558.236 183.061C558.136 183.053 558.035 183.066 557.941 183.099C557.846 183.132 557.759 183.184 557.685 183.252C557.611 183.32 557.552 183.402 557.512 183.494C554.432 190.567 550.348 196.59 545.262 201.564C537.622 209.054 526.822 212.314 517.072 206.394C514.138 204.62 511.939 202.874 510.472 201.154C498.612 187.244 493.672 169.674 492.372 150.714C490.682 126.134 493.212 99.2637 507.032 78.3537C512.572 69.9837 521.252 61.5037 532.292 64.0637C535.479 64.797 538.189 65.757 540.422 66.9437C540.431 66.9486 540.441 66.9515 540.451 66.9521C540.461 66.9527 540.472 66.951 540.481 66.9472C540.491 66.9433 540.499 66.9375 540.506 66.93C540.513 66.9225 540.519 66.9135 540.522 66.9037L540.632 66.5837C540.649 66.5353 540.65 66.4827 540.633 66.4352C540.617 66.3877 540.584 66.3483 540.542 66.3237C534.089 62.097 527.152 61.1304 519.732 63.4237" stroke="#DEA20D" style="stroke:#DEA20D;stroke:color(display-p3 0.8706 0.6353 0.0510);stroke-opacity:1;" stroke-width="2"/>
<path d="M519.26 209.944C511.766 206.284 505.76 200.684 501.24 193.144C496.26 184.837 492.74 175.96 490.68 166.514" stroke="#E9C63C" style="stroke:#E9C63C;stroke:color(display-p3 0.9137 0.7765 0.2353);stroke-opacity:1;" stroke-width="2"/>
<path d="M490.68 166.514C486.467 145.894 486.72 125.364 491.44 104.924C492.787 99.0837 494.68 93.427 497.12 87.9537C501.85 77.3637 508.71 68.4037 519.73 63.4237" stroke="#EAB01A" style="stroke:#EAB01A;stroke:color(display-p3 0.9176 0.6902 0.1020);stroke-opacity:1;" stroke-width="2"/>
<path d="M490.68 166.514C490.306 166.487 489.993 166.237 489.74 165.764C489.715 165.722 489.677 165.69 489.632 165.673C489.587 165.656 489.537 165.655 489.492 165.67C489.446 165.686 489.407 165.716 489.381 165.757C489.355 165.797 489.344 165.846 489.35 165.894L491.81 178.944C491.819 178.972 491.817 179.002 491.804 179.028C491.79 179.055 491.767 179.074 491.74 179.084C491.712 179.093 491.681 179.091 491.655 179.078C491.629 179.065 491.609 179.042 491.6 179.014C490.533 176.934 489.006 175.374 487.02 174.334" stroke="#FFE553" style="stroke:#FFE553;stroke:color(display-p3 1.0000 0.8980 0.3255);stroke-opacity:1;" stroke-width="2"/>
<path d="M506.901 157.694C506.274 160.534 506.761 163.62 508.361 166.954C508.594 167.447 508.554 167.937 508.241 168.424C508.214 168.467 508.175 168.501 508.129 168.523C508.084 168.545 508.032 168.554 507.981 168.549C507.93 168.544 507.88 168.525 507.838 168.494C507.796 168.463 507.762 168.422 507.741 168.374L504.991 162.084C504.982 162.06 504.964 162.041 504.94 162.029C504.916 162.018 504.888 162.016 504.861 162.024L504.511 162.164C504.463 162.184 504.423 162.22 504.399 162.264C504.375 162.308 504.369 162.358 504.381 162.404C506.308 171.117 509.934 178.264 515.261 183.844C521.314 190.184 528.284 191.367 536.171 187.394" stroke="#F3D746" style="stroke:#F3D746;stroke:color(display-p3 0.9529 0.8431 0.2745);stroke-opacity:1;" stroke-width="2"/>
<path d="M536.17 187.394L541.95 181.944C542.163 181.745 542.347 181.519 542.5 181.274C544.81 177.614 547.13 174.374 548.59 170.134C553.35 156.314 555.074 142.124 553.76 127.564C552.74 116.304 549.66 106.974 544.81 96.3337C541.6 89.2937 534.32 82.6537 526.26 84.5237C518.4 86.3337 511.17 99.8037 508.99 107.074C504.097 123.4 503.4 140.274 506.9 157.694" stroke="#DEA20D" style="stroke:#DEA20D;stroke:color(display-p3 0.8706 0.6353 0.0510);stroke-opacity:1;" stroke-width="2"/>
<path d="M536.168 187.394C525.848 190.334 519.208 184.684 514.348 176.504C510.902 170.684 508.418 164.414 506.898 157.694" stroke="#E9C63C" style="stroke:#E9C63C;stroke:color(display-p3 0.9137 0.7765 0.2353);stroke-opacity:1;" stroke-width="2"/>
<path d="M556.24 75.6837L562.15 83.8137C562.167 83.8356 562.193 83.8499 562.221 83.8536C562.249 83.8573 562.277 83.8502 562.3 83.8337C562.437 83.734 562.524 83.5682 562.556 83.3458C562.588 83.1234 562.564 82.8488 562.486 82.5377C562.408 82.2266 562.277 81.885 562.101 81.5326C561.925 81.1802 561.707 80.8237 561.46 80.4837L559.19 77.3637C558.692 76.6789 558.105 76.1018 557.557 75.7588C557.01 75.4158 556.547 75.3349 556.27 75.5337H556.26C556.238 75.5514 556.223 75.5768 556.22 75.6047C556.216 75.6326 556.223 75.6609 556.24 75.6837Z" stroke="#FFE553" style="stroke:#FFE553;stroke:color(display-p3 1.0000 0.8980 0.3255);stroke-opacity:1;" stroke-width="2"/>
<path d="M597.452 101.841C597.452 101.739 597.432 101.638 597.393 101.543C597.354 101.448 597.297 101.362 597.224 101.289C597.152 101.217 597.066 101.159 596.972 101.12C596.877 101.081 596.776 101.06 596.673 101.06L577.953 101.027C577.746 101.027 577.548 101.109 577.401 101.255C577.255 101.401 577.172 101.599 577.172 101.806L577.172 101.846C577.172 101.948 577.192 102.05 577.231 102.145C577.27 102.239 577.327 102.325 577.399 102.398C577.472 102.471 577.557 102.528 577.652 102.568C577.747 102.607 577.848 102.627 577.95 102.627L596.67 102.66C596.877 102.66 597.076 102.579 597.222 102.433C597.369 102.287 597.451 102.088 597.452 101.881L597.452 101.841Z" stroke="#F3D746" style="stroke:#F3D746;stroke:color(display-p3 0.9529 0.8431 0.2745);stroke-opacity:1;" stroke-width="2"/>
<path d="M585.689 33.1637C598.129 32.0237 610.199 32.2937 612.959 17.0737C613.772 12.5937 614.376 6.93706 614.769 0.103731C614.776 -0.0496026 614.792 -0.0329482 614.819 0.153718C615.252 3.04039 615.396 6.06373 615.249 9.22373C615.222 9.87535 615.263 10.5287 615.369 11.1737C616.849 20.3237 618.789 28.1437 628.319 31.2137C632.599 32.5937 638.609 32.3137 643.789 33.2637C643.802 33.265 643.814 33.2716 643.823 33.2819C643.831 33.2922 643.835 33.3055 643.834 33.3187C643.833 33.332 643.826 33.3442 643.816 33.3526C643.806 33.361 643.792 33.365 643.779 33.3637L633.979 34.0337C633.919 34.0337 633.855 34.0404 633.789 34.0537C630.602 34.7004 628.792 35.0904 628.359 35.2237C622.919 36.8571 619.439 40.1137 617.919 44.9937C616.399 49.867 615.562 53.947 615.409 57.2337C615.222 61.3804 615.072 64.777 614.959 67.4237C614.959 67.4416 614.954 67.459 614.943 67.4732C614.932 67.4875 614.917 67.4977 614.9 67.5023C614.882 67.5069 614.864 67.5056 614.848 67.4986C614.831 67.4916 614.818 67.4793 614.809 67.4637L614.639 67.2137C614.633 67.1942 614.629 67.1769 614.629 67.1637C614.516 60.9304 613.989 55.3004 613.049 50.2737C611.569 42.3537 608.279 37.1237 600.079 35.0537C596.712 34.207 593.909 33.8204 591.669 33.8937C589.509 33.9637 587.709 33.6137 585.689 33.4637C585.649 33.4637 585.611 33.4479 585.583 33.4198C585.555 33.3916 585.539 33.3535 585.539 33.3137C585.539 33.2739 585.555 33.2358 585.583 33.2076C585.611 33.1795 585.649 33.1637 585.689 33.1637Z" fill="black" style="fill:black;fill-opacity:1;"/>
<path d="M553.219 44.5638L529.719 44.5038C537.545 43.5971 545.379 43.6171 553.219 44.5638Z" fill="#D49102" style="fill:#D49102;fill:color(display-p3 0.8314 0.5686 0.0078);fill-opacity:1;"/>
<path d="M553.22 44.5638C554.2 44.5638 555.166 44.6538 556.12 44.8338C562.513 46.0404 568.23 48.7104 573.27 52.8438C578.71 57.2904 583.243 62.9204 586.87 69.7338C583.103 75.0671 579.35 80.3804 575.61 85.6738C575.356 86.0338 574.83 86.5105 574.03 87.1038C573.983 87.1368 573.93 87.1589 573.874 87.1687C573.818 87.1785 573.761 87.1756 573.706 87.1602C573.652 87.1449 573.601 87.1175 573.558 87.08C573.516 87.0426 573.482 86.996 573.46 86.9438L571.08 81.1038C571.053 81.0445 571.04 80.9798 571.04 80.9138V78.5938C571.04 78.4414 571.006 78.2911 570.94 78.1543C570.874 78.0174 570.778 77.8976 570.66 77.8038C569.406 76.8038 568.526 75.8138 568.02 74.8338C563.353 65.6604 556.756 58.4938 548.23 53.3338C547.303 53.0871 545.88 52.2805 543.96 50.9138C538.75 47.2138 530.98 44.9838 524.38 46.8138C520.846 47.7938 518.56 48.5604 517.52 49.1138C515.066 50.4271 512.32 52.0905 509.28 54.1038C506.426 55.9971 503.99 58.0905 501.97 60.3838C489.99 73.9538 482.82 91.5238 479.22 109.224C474.686 131.57 475.053 153.95 480.32 176.364C483.04 187.957 487.906 198.574 494.92 208.214C503.35 219.814 515.52 226.854 530.25 226.534C539.44 226.334 549.48 218.814 555.31 212.224C555.4 212.122 555.527 212.059 555.662 212.047C555.798 212.036 555.934 212.078 556.04 212.164C556.133 212.237 556.15 212.464 556.09 212.844C550.716 219.03 543.64 223.957 534.86 227.624C529.033 228.644 523.216 228.254 517.41 226.454C495.37 219.624 483.06 195.274 478.45 174.454C473.636 152.727 473.366 131 477.64 109.274C479.893 97.7804 483.566 87.0271 488.66 77.0138C496.58 61.4138 510.97 45.8538 529.72 44.5038L553.22 44.5638Z" fill="#FFCE31" style="fill:#FFCE31;fill:color(display-p3 1.0000 0.8078 0.1922);fill-opacity:1;"/>
<path d="M548.23 53.3338C555.803 61.0938 561.53 69.4804 565.41 78.4938C565.538 78.7983 565.56 79.1366 565.473 79.4541C565.386 79.7716 565.194 80.0498 564.93 80.2438L564.81 80.3338C564.686 80.424 564.544 80.487 564.394 80.5188C564.244 80.5506 564.088 80.5505 563.938 80.5185C563.787 80.4865 563.644 80.4232 563.519 80.3329C563.394 80.2425 563.288 80.127 563.21 79.9938C561.79 77.5671 559.663 75.5038 556.83 73.8038C556.525 73.6179 556.242 73.3893 555.99 73.1238C552.41 69.3038 549.053 66.5138 545.92 64.7538C545.426 64.4738 545.076 64.6171 544.87 65.1838C544.82 65.3182 544.741 65.4399 544.639 65.5401C544.537 65.6404 544.414 65.7167 544.28 65.7638C543.786 65.9371 543.14 65.9438 542.34 65.7838C542.202 65.7559 542.06 65.7755 541.935 65.8392C541.81 65.903 541.71 66.0072 541.652 66.1349C541.594 66.2625 541.581 66.4061 541.615 66.5421C541.649 66.6781 541.728 66.7986 541.84 66.8838C548.806 72.0705 554.363 78.8904 558.51 87.3438C558.555 87.4361 558.573 87.5391 558.563 87.6413C558.553 87.7435 558.516 87.8407 558.454 87.9219C558.393 88.0031 558.31 88.0651 558.216 88.1007C558.121 88.1364 558.019 88.1444 557.92 88.1238C556.88 87.9171 556.133 88.1338 555.68 88.7738C555.608 88.8712 555.567 88.9871 555.559 89.1077C555.552 89.2282 555.579 89.3483 555.638 89.4537C555.697 89.5591 555.786 89.6453 555.892 89.702C555.999 89.7588 556.119 89.7837 556.24 89.7738L558.78 89.6038C558.92 89.5955 559.058 89.6308 559.175 89.7045C559.292 89.7782 559.381 89.8865 559.43 90.0138L560.46 92.6438C560.49 92.7214 560.501 92.8049 560.493 92.8877C560.485 92.9705 560.457 93.0501 560.412 93.1202C560.367 93.1903 560.307 93.2489 560.235 93.2912C560.163 93.3335 560.083 93.3584 560 93.3638L552.18 93.8938C552.039 93.9067 551.908 93.9705 551.811 94.0731C551.714 94.1757 551.658 94.3101 551.653 94.4512C551.648 94.5922 551.695 94.7302 551.785 94.8393C551.874 94.9484 552.001 95.0211 552.14 95.0438L559.83 96.0638C559.949 96.0809 560.062 96.1275 560.159 96.1991C560.256 96.2707 560.334 96.3651 560.385 96.4736C560.435 96.5821 560.458 96.7013 560.45 96.8201C560.442 96.939 560.404 97.0537 560.34 97.1538C559.773 98.0471 558.926 98.7738 557.8 99.3338C557.675 99.3967 557.574 99.4988 557.512 99.6246C557.451 99.7503 557.432 99.8928 557.46 100.03C557.487 100.167 557.558 100.292 557.663 100.385C557.768 100.478 557.9 100.533 558.04 100.544C558.9 100.61 560.236 99.9671 562.05 98.6138C562.152 98.5356 562.274 98.4866 562.401 98.4722C562.529 98.4577 562.659 98.4783 562.776 98.5317C562.893 98.5851 562.993 98.6694 563.066 98.7754C563.139 98.8815 563.182 99.0053 563.19 99.1338L563.27 100.314C563.289 100.64 563.178 100.966 562.96 101.224C561.866 102.484 560.276 103.617 558.19 104.624C558.129 104.656 558.081 104.707 558.053 104.77C558.024 104.833 558.018 104.903 558.034 104.968C558.051 105.034 558.089 105.091 558.143 105.13C558.197 105.17 558.263 105.189 558.33 105.184C560.256 105.084 561.893 104.444 563.24 103.264C563.369 103.153 563.533 103.09 563.704 103.085C563.874 103.079 564.041 103.132 564.177 103.235C564.314 103.337 564.411 103.483 564.453 103.649C564.496 103.814 564.48 103.988 564.41 104.144L561.3 110.634C561.278 110.685 561.272 110.741 561.282 110.796C561.292 110.851 561.317 110.901 561.355 110.941C561.392 110.981 561.44 111.008 561.493 111.019C561.546 111.03 561.6 111.025 561.65 111.004L562.71 110.544C562.728 110.537 562.745 110.527 562.759 110.513C562.773 110.499 562.783 110.482 562.79 110.464C563.423 108.81 564.34 107.387 565.54 106.194C565.571 106.16 565.612 106.139 565.657 106.132C565.702 106.125 565.748 106.134 565.788 106.156C565.829 106.179 565.861 106.214 565.881 106.257C565.901 106.3 565.908 106.348 565.9 106.394L565.45 108.654C565.21 111.254 566.34 113.844 566.54 115.594C566.9 118.924 567.83 122.284 568 126.364C568.426 136.544 568.256 146.257 567.49 155.504C567.29 157.95 566.956 160.387 566.49 162.814C565.736 166.687 565.32 169.13 565.24 170.144C565.231 170.241 565.26 170.337 565.32 170.412C565.38 170.486 565.466 170.534 565.56 170.544L565.93 170.594C566.013 170.604 566.096 170.585 566.166 170.539C566.236 170.493 566.287 170.424 566.31 170.344C567.643 165.73 568.673 160.687 569.4 155.214C570.706 145.36 570.963 135.207 570.17 124.754C569.643 117.767 569.236 110.86 568.95 104.034C570.016 102.907 570.806 101.467 571.32 99.7138C571.345 99.6357 571.393 99.5675 571.459 99.5187C571.525 99.4699 571.604 99.4431 571.686 99.442C571.768 99.4409 571.848 99.4656 571.915 99.5125C571.982 99.5595 572.033 99.6264 572.06 99.7038C575.426 110.237 577.48 121.247 578.22 132.734C578.63 139.204 578.22 146.314 578.03 152.754C578.017 153.078 577.949 153.396 577.83 153.694C577 155.824 577.29 157.854 576.83 160.224C575.903 165.024 575.15 168.807 574.57 171.574C573.743 175.5 572.7 179.204 571.44 182.684C569.08 189.19 567.673 192.9 567.22 193.814C564.78 198.694 563.2 202.377 562.48 204.864C561.386 207.404 559.256 210.064 556.09 212.844C556.15 212.464 556.133 212.237 556.04 212.164C555.934 212.078 555.799 212.036 555.663 212.047C555.527 212.059 555.4 212.122 555.31 212.224C549.48 218.814 539.44 226.334 530.25 226.534C515.52 226.854 503.35 219.814 494.92 208.214C487.906 198.574 483.04 187.957 480.32 176.364C475.053 153.95 474.686 131.57 479.22 109.224C482.82 91.5238 489.99 73.9538 501.97 60.3838C503.99 58.0905 506.426 55.9971 509.28 54.1038C512.32 52.0905 515.066 50.4271 517.52 49.1138C518.56 48.5604 520.846 47.7938 524.38 46.8138C530.98 44.9838 538.75 47.2138 543.96 50.9138C545.88 52.2805 547.303 53.0871 548.23 53.3338ZM519.73 63.4238L510.43 64.1738C510.162 64.1933 509.902 64.2867 509.68 64.4438C500.28 70.9738 493.2 82.2238 489.14 93.0338C483.626 107.714 481.25 123.117 482.01 139.244C482.083 140.784 482.196 142.07 482.35 143.104C482.616 144.91 482.61 146.337 482.33 147.384C482.219 147.774 482.237 148.191 482.38 148.574C482.58 149.107 482.816 151.694 483.09 156.334C483.363 161.094 484.673 167.094 487.02 174.334C490.06 187.634 496.88 200.124 507.63 208.624C509.49 210.094 511.03 210.594 513.14 211.614C513.447 211.764 513.795 211.82 514.14 211.774C516.06 211.52 517.766 210.91 519.26 209.944C523.96 211.557 528.566 211.787 533.08 210.634C535.28 210.064 536.37 209.234 538.21 208.534C539.23 208.147 540.423 207.47 541.79 206.504C549.35 201.17 555.066 193.744 558.94 184.224C559.018 184.032 559.021 183.817 558.949 183.621C558.877 183.426 558.735 183.263 558.55 183.164L558.52 183.144C558.431 183.097 558.334 183.068 558.234 183.061C558.134 183.053 558.033 183.066 557.939 183.099C557.844 183.132 557.757 183.184 557.683 183.252C557.609 183.32 557.55 183.402 557.51 183.494C554.43 190.567 550.346 196.59 545.26 201.564C537.62 209.054 526.82 212.314 517.07 206.394C514.136 204.62 511.936 202.874 510.47 201.154C498.61 187.244 493.67 169.674 492.37 150.714C490.68 126.134 493.21 99.2638 507.03 78.3538C512.57 69.9838 521.25 61.5038 532.29 64.0638C535.476 64.7971 538.186 65.7571 540.42 66.9438C540.429 66.9487 540.439 66.9515 540.449 66.9521C540.459 66.9527 540.47 66.9511 540.479 66.9472C540.489 66.9434 540.497 66.9376 540.504 66.9301C540.511 66.9225 540.517 66.9136 540.52 66.9038L540.63 66.5838C540.647 66.5353 540.648 66.4828 540.631 66.4353C540.615 66.3878 540.582 66.3483 540.54 66.3238C534.086 62.0971 527.15 61.1304 519.73 63.4238ZM506.9 157.694C506.273 160.534 506.76 163.62 508.36 166.954C508.593 167.447 508.553 167.937 508.24 168.424C508.213 168.467 508.174 168.501 508.128 168.523C508.083 168.545 508.031 168.554 507.98 168.549C507.929 168.544 507.879 168.525 507.837 168.494C507.795 168.463 507.761 168.422 507.74 168.374L504.99 162.084C504.981 162.06 504.963 162.041 504.939 162.029C504.915 162.018 504.887 162.016 504.86 162.024L504.51 162.164C504.462 162.184 504.422 162.22 504.398 162.264C504.374 162.308 504.368 162.358 504.38 162.404C506.306 171.117 509.933 178.264 515.26 183.844C521.313 190.184 528.283 191.367 536.17 187.394L541.95 181.944C542.162 181.745 542.347 181.519 542.5 181.274C544.81 177.614 547.13 174.374 548.59 170.134C553.35 156.314 555.073 142.124 553.76 127.564C552.74 116.304 549.66 106.974 544.81 96.3338C541.6 89.2938 534.32 82.6538 526.26 84.5238C518.4 86.3338 511.17 99.8038 508.99 107.074C504.096 123.4 503.4 140.274 506.9 157.694Z" fill="#E7B317" style="fill:#E7B317;fill:color(display-p3 0.9059 0.7020 0.0902);fill-opacity:1;"/>
<path d="M32.58 205.924H0.529999C0.389434 205.924 0.25463 205.868 0.155235 205.768C0.055841 205.669 0 205.534 0 205.394V50.8337C0 50.7117 0.0484607 50.5947 0.134727 50.5085C0.220994 50.4222 0.338 50.3737 0.459999 50.3737C24.3933 50.3604 38.4267 50.3404 42.56 50.3137C61.08 50.2137 72.04 50.0037 85.33 56.1437C100.82 63.3137 110.61 76.5237 112.89 93.7137C114.103 102.834 113.33 111.65 110.57 120.164C103.74 141.174 81.72 151.404 61.11 152.854C56.23 153.194 47.1267 153.29 33.8 153.144C33.7296 153.142 33.6596 153.155 33.5941 153.181C33.5286 153.207 33.469 153.246 33.4188 153.295C33.3685 153.345 33.3285 153.404 33.3013 153.469C33.274 153.534 33.26 153.603 33.26 153.674V205.244C33.26 205.424 33.1884 205.597 33.0608 205.725C32.9333 205.852 32.7603 205.924 32.58 205.924ZM33.39 79.3337L33.15 124.494C33.15 124.584 33.1858 124.67 33.2496 124.734C33.3133 124.798 33.3998 124.834 33.49 124.834L55.21 124.944C61.792 124.977 68.116 122.711 72.7912 118.643C77.4664 114.576 80.1098 109.04 80.14 103.254L80.16 101.054C80.1751 98.1879 79.5478 95.3469 78.3141 92.6927C77.0804 90.0386 75.2644 87.6234 72.9698 85.5851C70.6752 83.5468 67.9469 81.9254 64.9409 80.8133C61.9348 79.7012 58.7098 79.1203 55.45 79.1037L33.73 78.9937C33.6853 78.9937 33.6411 79.0025 33.5999 79.0196C33.5586 79.0367 33.5212 79.0617 33.4896 79.0933C33.458 79.1249 33.433 79.1624 33.4159 79.2036C33.3988 79.2449 33.39 79.2891 33.39 79.3337Z" fill="#FFCE31" style="fill:#FFCE31;fill:color(display-p3 1.0000 0.8078 0.1922);fill-opacity:1;"/>
<path d="M586.871 69.7337C587.537 70.5737 587.981 71.3271 588.201 71.9937C588.234 72.3471 588.104 72.6004 587.811 72.7538C587.757 72.7818 587.699 72.7972 587.64 72.799C587.581 72.8007 587.523 72.7886 587.471 72.7637C587.398 72.7237 587.328 72.6904 587.261 72.6638C587.204 72.6383 587.139 72.6333 587.077 72.6496C587.016 72.6659 586.961 72.7026 586.921 72.7538C584.228 76.3738 581.114 80.6704 577.581 85.6437C576.441 87.2504 575.451 88.9204 574.611 90.6537C574.513 90.8578 574.47 91.0843 574.488 91.31C574.506 91.5358 574.583 91.7528 574.712 91.9389C574.842 92.1249 575.018 92.2734 575.223 92.3691C575.428 92.4648 575.655 92.5044 575.881 92.4837C582.607 91.8237 589.294 91.6671 595.941 92.0137L598.891 105.364H578.471C578.435 105.363 578.399 105.37 578.366 105.385C578.333 105.4 578.304 105.423 578.281 105.451C578.258 105.479 578.241 105.511 578.232 105.547C578.224 105.582 578.223 105.618 578.231 105.654L578.701 108.154C578.715 108.228 578.754 108.294 578.81 108.342C578.867 108.389 578.938 108.415 579.011 108.414L599.361 108.394C599.627 109.14 599.768 109.997 599.781 110.964L579.381 110.934C579.335 110.933 579.29 110.943 579.248 110.961C579.207 110.98 579.169 111.007 579.139 111.041C579.109 111.075 579.086 111.115 579.073 111.159C579.059 111.203 579.055 111.248 579.061 111.294L580.361 121.254L580.401 122.904L580.831 127.214C581.124 134.194 581.181 139.474 581.001 143.054C579.981 163.247 574.857 182.31 565.631 200.244C564.897 201.664 563.848 203.204 562.481 204.864C563.201 202.377 564.781 198.694 567.221 193.814C567.674 192.9 569.081 189.19 571.441 182.684C572.701 179.204 573.744 175.5 574.571 171.574C575.151 168.807 575.904 165.024 576.831 160.224C577.291 157.854 577.001 155.824 577.831 153.694C577.95 153.396 578.018 153.078 578.031 152.754C578.221 146.314 578.631 139.204 578.221 132.734C577.481 121.247 575.427 110.237 572.061 99.7037C572.034 99.6264 571.983 99.5595 571.916 99.5125C571.849 99.4655 571.769 99.4408 571.687 99.442C571.605 99.4431 571.526 99.4699 571.46 99.5187C571.394 99.5675 571.346 99.6357 571.321 99.7137C570.807 101.467 570.018 102.907 568.951 104.034L566.981 110.764C566.95 110.865 566.887 110.953 566.802 111.016C566.716 111.078 566.613 111.111 566.507 111.11C566.401 111.109 566.299 111.074 566.215 111.01C566.131 110.945 566.07 110.856 566.041 110.754L565.451 108.654L565.901 106.394C565.909 106.348 565.903 106.299 565.882 106.257C565.862 106.214 565.83 106.179 565.789 106.156C565.749 106.134 565.703 106.125 565.658 106.132C565.613 106.139 565.572 106.16 565.541 106.194C564.341 107.387 563.424 108.81 562.791 110.464C562.784 110.482 562.774 110.499 562.76 110.513C562.746 110.527 562.729 110.537 562.711 110.544L561.651 111.004C561.601 111.025 561.547 111.03 561.494 111.019C561.441 111.008 561.393 110.981 561.356 110.941C561.318 110.901 561.293 110.851 561.283 110.796C561.273 110.741 561.279 110.685 561.301 110.634L564.411 104.144C564.481 103.988 564.497 103.814 564.454 103.648C564.412 103.483 564.315 103.337 564.178 103.235C564.042 103.132 563.875 103.079 563.705 103.085C563.534 103.09 563.371 103.153 563.241 103.264C561.894 104.444 560.258 105.084 558.331 105.184C558.264 105.188 558.198 105.17 558.144 105.13C558.09 105.091 558.052 105.034 558.035 104.968C558.019 104.903 558.026 104.833 558.054 104.77C558.082 104.707 558.13 104.655 558.191 104.624C560.277 103.617 561.868 102.484 562.961 101.224C563.179 100.966 563.29 100.64 563.271 100.314L563.191 99.1338C563.183 99.0053 563.14 98.8814 563.067 98.7754C562.994 98.6693 562.894 98.5851 562.777 98.5317C562.66 98.4783 562.53 98.4577 562.402 98.4722C562.275 98.4866 562.153 98.5356 562.051 98.6137C560.237 99.9671 558.901 100.61 558.041 100.544C557.901 100.533 557.769 100.477 557.664 100.385C557.559 100.292 557.488 100.167 557.461 100.03C557.433 99.8927 557.452 99.7503 557.513 99.6245C557.575 99.4988 557.676 99.3966 557.801 99.3337C558.927 98.7737 559.774 98.0471 560.341 97.1537C560.405 97.0537 560.443 96.9389 560.451 96.8201C560.459 96.7013 560.436 96.5821 560.386 96.4736C560.335 96.3651 560.257 96.2707 560.16 96.1991C560.064 96.1275 559.95 96.0809 559.831 96.0638L552.141 95.0437C552.002 95.021 551.875 94.9484 551.786 94.8393C551.696 94.7302 551.65 94.5922 551.654 94.4511C551.659 94.3101 551.716 94.1757 551.812 94.0731C551.909 93.9705 552.04 93.9067 552.181 93.8937L560.001 93.3637C560.084 93.3583 560.164 93.3335 560.236 93.2912C560.308 93.2489 560.368 93.1903 560.413 93.1202C560.458 93.0501 560.486 92.9704 560.494 92.8877C560.502 92.8049 560.491 92.7213 560.461 92.6437L559.431 90.0137C559.382 89.8865 559.293 89.7782 559.176 89.7045C559.059 89.6307 558.921 89.5955 558.781 89.6038L556.241 89.7737C556.12 89.7836 556 89.7587 555.893 89.702C555.787 89.6453 555.699 89.559 555.639 89.4537C555.58 89.3483 555.553 89.2282 555.56 89.1076C555.568 88.9871 555.609 88.8712 555.681 88.7737C556.134 88.1337 556.881 87.9171 557.921 88.1237C558.02 88.1444 558.122 88.1364 558.217 88.1007C558.311 88.065 558.394 88.0031 558.455 87.9219C558.517 87.8407 558.554 87.7435 558.564 87.6413C558.574 87.5391 558.556 87.436 558.511 87.3438C554.364 78.8904 548.808 72.0704 541.841 66.8838C541.729 66.7985 541.65 66.6781 541.616 66.5421C541.582 66.406 541.595 66.2625 541.653 66.1348C541.711 66.0072 541.811 65.903 541.936 65.8392C542.061 65.7754 542.203 65.7559 542.341 65.7838C543.141 65.9438 543.788 65.9371 544.281 65.7637C544.415 65.7167 544.538 65.6403 544.64 65.5401C544.742 65.4399 544.821 65.3182 544.871 65.1837C545.077 64.6171 545.428 64.4738 545.921 64.7538C549.054 66.5138 552.411 69.3037 555.991 73.1237C556.243 73.3893 556.526 73.6179 556.831 73.8037C559.664 75.5037 561.791 77.5671 563.211 79.9937C563.289 80.127 563.395 80.2425 563.52 80.3329C563.646 80.4232 563.788 80.4864 563.939 80.5185C564.089 80.5505 564.245 80.5506 564.395 80.5188C564.545 80.487 564.687 80.4239 564.811 80.3337L564.931 80.2437C565.195 80.0497 565.387 79.7716 565.474 79.4541C565.561 79.1366 565.539 78.7983 565.411 78.4937C561.531 69.4804 555.804 61.0937 548.231 53.3337C556.758 58.4937 563.354 65.6604 568.021 74.8337C568.528 75.8137 569.408 76.8037 570.661 77.8037C570.779 77.8976 570.875 78.0174 570.941 78.1542C571.007 78.2911 571.041 78.4413 571.041 78.5938V80.9138C571.041 80.9797 571.055 81.0445 571.081 81.1038L573.461 86.9438C573.483 86.996 573.517 87.0425 573.56 87.08C573.602 87.1174 573.653 87.1448 573.708 87.1602C573.762 87.1755 573.82 87.1784 573.876 87.1687C573.932 87.1589 573.985 87.1367 574.031 87.1038C574.831 86.5104 575.357 86.0337 575.611 85.6737C579.351 80.3804 583.104 75.0671 586.871 69.7337ZM556.241 75.6837L562.151 83.8138C562.169 83.8356 562.194 83.8499 562.222 83.8536C562.25 83.8574 562.278 83.8502 562.301 83.8337C562.438 83.734 562.525 83.5682 562.557 83.3458C562.589 83.1234 562.565 82.8488 562.487 82.5377C562.409 82.2266 562.278 81.8851 562.102 81.5326C561.926 81.1802 561.708 80.8238 561.461 80.4837L559.191 77.3637C558.693 76.6789 558.106 76.1018 557.559 75.7588C557.011 75.4158 556.548 75.3349 556.271 75.5338H556.261C556.239 75.5514 556.225 75.5769 556.221 75.6048C556.217 75.6327 556.224 75.6609 556.241 75.6837ZM597.451 101.841C597.451 101.739 597.431 101.638 597.392 101.543C597.353 101.448 597.296 101.362 597.223 101.289C597.151 101.217 597.065 101.159 596.971 101.12C596.876 101.081 596.775 101.06 596.672 101.06L577.952 101.027C577.745 101.027 577.547 101.109 577.4 101.255C577.254 101.401 577.171 101.599 577.171 101.806L577.171 101.846C577.171 101.948 577.191 102.05 577.23 102.145C577.269 102.239 577.326 102.325 577.398 102.398C577.471 102.471 577.556 102.528 577.651 102.568C577.746 102.607 577.847 102.627 577.949 102.627L596.669 102.66C596.876 102.66 597.075 102.579 597.221 102.433C597.368 102.287 597.45 102.088 597.451 101.881L597.451 101.841Z" fill="#FEFB75" style="fill:#FEFB75;fill:color(display-p3 0.9961 0.9843 0.4588);fill-opacity:1;"/>
<path d="M519.26 209.944C511.767 206.284 505.76 200.684 501.24 193.144C496.26 184.837 492.74 175.96 490.68 166.514C486.467 145.894 486.72 125.364 491.44 104.924C492.787 99.0837 494.68 93.4271 497.12 87.9537C501.85 77.3637 508.71 68.4037 519.73 63.4237C527.15 61.1304 534.087 62.0971 540.54 66.3237C540.583 66.3483 540.615 66.3878 540.631 66.4353C540.648 66.4828 540.647 66.5353 540.63 66.5837L540.52 66.9037C540.517 66.9135 540.512 66.9225 540.505 66.93C540.498 66.9375 540.489 66.9434 540.479 66.9472C540.47 66.951 540.46 66.9527 540.449 66.9521C540.439 66.9515 540.429 66.9487 540.42 66.9437C538.187 65.7571 535.477 64.7971 532.29 64.0637C521.25 61.5037 512.57 69.9838 507.03 78.3538C493.21 99.2638 490.68 126.134 492.37 150.714C493.67 169.674 498.61 187.244 510.47 201.154C511.937 202.874 514.137 204.62 517.07 206.394C526.82 212.314 537.62 209.054 545.26 201.564C550.347 196.59 554.43 190.567 557.51 183.494C557.551 183.402 557.61 183.32 557.683 183.252C557.757 183.184 557.844 183.132 557.939 183.099C558.034 183.066 558.134 183.053 558.234 183.061C558.334 183.068 558.431 183.097 558.52 183.144L558.55 183.164C558.735 183.263 558.877 183.426 558.949 183.621C559.021 183.817 559.018 184.032 558.94 184.224C555.067 193.744 549.35 201.17 541.79 206.504C540.423 207.47 539.23 208.147 538.21 208.534C536.37 209.234 535.28 210.064 533.08 210.634C528.567 211.787 523.96 211.557 519.26 209.944Z" fill="#D49102" style="fill:#D49102;fill:color(display-p3 0.8314 0.5686 0.0078);fill-opacity:1;"/>
<path d="M519.729 63.4237C508.709 68.4037 501.849 77.3637 497.119 87.9537C494.679 93.427 492.786 99.0837 491.439 104.924C486.719 125.364 486.466 145.894 490.679 166.514C490.306 166.487 489.993 166.237 489.739 165.764C489.715 165.722 489.677 165.69 489.632 165.673C489.587 165.656 489.537 165.655 489.491 165.67C489.446 165.686 489.407 165.716 489.381 165.757C489.355 165.797 489.344 165.846 489.349 165.894L491.809 178.944C491.818 178.972 491.816 179.002 491.803 179.028C491.79 179.054 491.767 179.074 491.739 179.084C491.711 179.093 491.681 179.091 491.655 179.078C491.628 179.065 491.609 179.042 491.599 179.014C490.533 176.934 489.006 175.374 487.019 174.334C484.673 167.094 483.363 161.094 483.089 156.334C482.816 151.694 482.579 149.107 482.379 148.574C482.236 148.19 482.219 147.774 482.329 147.384C482.609 146.337 482.616 144.91 482.349 143.104C482.196 142.07 482.083 140.784 482.009 139.244C481.249 123.117 483.626 107.714 489.139 93.0337C493.199 82.2237 500.279 70.9737 509.679 64.4437C509.902 64.2866 510.161 64.1933 510.429 64.1737L519.729 63.4237Z" fill="#FFCE31" style="fill:#FFCE31;fill:color(display-p3 1.0000 0.8078 0.1922);fill-opacity:1;"/>
<path d="M595.941 92.0138C589.294 91.6671 582.608 91.8238 575.881 92.4838C575.656 92.5044 575.429 92.4649 575.223 92.3691C575.018 92.2734 574.842 92.125 574.713 91.9389C574.584 91.7528 574.506 91.5358 574.488 91.3101C574.471 91.0843 574.513 90.8578 574.611 90.6538C575.451 88.9204 576.441 87.2504 577.581 85.6438C581.114 80.6704 584.228 76.3738 586.921 72.7538C586.961 72.7026 587.016 72.6659 587.078 72.6496C587.139 72.6333 587.204 72.6383 587.261 72.6638C587.328 72.6905 587.398 72.7238 587.471 72.7638C587.523 72.7887 587.581 72.8007 587.64 72.799C587.699 72.7973 587.758 72.7818 587.811 72.7538C588.104 72.6005 588.234 72.3471 588.201 71.9938C591.514 78.3004 594.094 84.9738 595.941 92.0138Z" fill="#FFCE31" style="fill:#FFCE31;fill:color(display-p3 1.0000 0.8078 0.1922);fill-opacity:1;"/>
<path d="M556.24 75.6838C556.223 75.6609 556.216 75.6327 556.22 75.6048C556.223 75.5769 556.238 75.5515 556.26 75.5338H556.27C556.547 75.3349 557.01 75.4158 557.557 75.7588C558.105 76.1018 558.692 76.6789 559.19 77.3637L561.46 80.4837C561.707 80.8238 561.925 81.1802 562.101 81.5326C562.277 81.8851 562.408 82.2266 562.486 82.5377C562.564 82.8488 562.588 83.1234 562.556 83.3458C562.524 83.5682 562.437 83.734 562.3 83.8337C562.277 83.8502 562.249 83.8574 562.221 83.8536C562.193 83.8499 562.167 83.8357 562.15 83.8138L556.24 75.6838Z" fill="#FFCE31" style="fill:#FFCE31;fill:color(display-p3 1.0000 0.8078 0.1922);fill-opacity:1;"/>
<path d="M536.17 187.394C525.85 190.334 519.21 184.684 514.35 176.504C510.904 170.684 508.42 164.414 506.9 157.694C503.4 140.274 504.097 123.4 508.99 107.074C511.17 99.8037 518.4 86.3337 526.26 84.5237C534.32 82.6537 541.6 89.2937 544.81 96.3337C549.66 106.974 552.74 116.304 553.76 127.564C555.074 142.124 553.35 156.314 548.59 170.134C547.13 174.374 544.81 177.614 542.5 181.274C542.347 181.519 542.163 181.745 541.95 181.944L536.17 187.394Z" fill="#D49102" style="fill:#D49102;fill:color(display-p3 0.8314 0.5686 0.0078);fill-opacity:1;"/>
<path d="M461.549 165.784C461.613 165.784 461.677 165.799 461.735 165.826C461.793 165.854 461.844 165.894 461.885 165.943C461.926 165.993 461.956 166.051 461.972 166.113C461.988 166.175 461.991 166.24 461.979 166.304C458.739 185.304 445.889 198.524 427.909 204.704C394.129 216.324 355.499 202.474 347.139 164.954C344.052 151.1 344.362 137.82 348.069 125.114C352.776 108.974 362.559 97.4237 377.419 90.4637C384.112 87.3304 390.956 85.4737 397.949 84.8937C403.509 84.4337 408.866 84.4804 414.019 85.0337C428.852 86.6337 441.292 92.9304 451.339 103.924C456.939 110.044 461.669 119.634 461.979 128.274C461.982 128.334 461.972 128.395 461.951 128.452C461.929 128.509 461.896 128.561 461.854 128.605C461.812 128.649 461.762 128.684 461.706 128.708C461.65 128.732 461.59 128.744 461.529 128.744H430.609C430.452 128.744 430.298 128.694 430.17 128.601C430.043 128.507 429.948 128.375 429.899 128.224C425.549 114.744 413.899 107.644 400.139 110.674C386.469 113.674 377.869 127.014 376.989 140.734C376.409 149.764 376.609 158.324 380.379 166.714C386.589 180.524 402.039 187.944 416.179 181.704C422.492 178.924 427.086 173.76 429.959 166.214C430.009 166.087 430.096 165.979 430.208 165.902C430.32 165.825 430.453 165.784 430.589 165.784H461.549Z" fill="black" style="fill:black;fill-opacity:1;"/>
<path d="M684.62 100.654C684.619 100.695 684.631 100.737 684.655 100.771C684.679 100.805 684.713 100.83 684.753 100.843C684.793 100.855 684.836 100.854 684.875 100.84C684.914 100.826 684.948 100.799 684.97 100.764C691.164 91.9504 699.737 86.7004 710.69 85.0137C712.597 84.7204 715.6 84.6071 719.7 84.6737C731.77 84.8537 742.05 90.2237 749.67 99.7137C756.21 107.854 757.69 117.314 757.69 127.464C757.67 168.817 757.664 194.847 757.67 205.554C757.67 205.62 757.644 205.684 757.597 205.731C757.55 205.777 757.487 205.804 757.42 205.804H727.82C727.735 205.804 727.654 205.77 727.594 205.71C727.534 205.65 727.5 205.569 727.5 205.484C727.474 174.257 727.49 150.824 727.55 135.184C727.597 123.804 723.267 116.394 714.56 112.954C709.807 111.074 705.434 110.61 701.44 111.564C691.2 113.994 685.7 123.524 685.65 133.724C685.577 151.124 685.567 175.027 685.62 205.434C685.62 205.532 685.581 205.626 685.512 205.695C685.443 205.765 685.348 205.804 685.25 205.804H656.42C656.342 205.804 656.264 205.788 656.191 205.758C656.118 205.728 656.052 205.684 655.996 205.628C655.94 205.572 655.896 205.506 655.866 205.433C655.836 205.361 655.82 205.283 655.82 205.204V88.2137C655.82 88.0546 655.882 87.902 655.993 87.7895C656.104 87.677 656.254 87.6137 656.41 87.6137H684.08C684.224 87.6137 684.361 87.6706 684.462 87.7719C684.563 87.8732 684.62 88.0105 684.62 88.1537V100.654Z" fill="black" style="fill:black;fill-opacity:1;"/>
<path d="M219.949 205.924H191.369C191.223 205.924 191.083 205.866 190.98 205.763C190.877 205.66 190.819 205.52 190.819 205.374V192.774C190.821 192.717 190.804 192.663 190.772 192.617C190.74 192.571 190.694 192.536 190.641 192.517C190.587 192.499 190.528 192.497 190.472 192.513C190.416 192.528 190.366 192.56 190.329 192.604C180.069 204.934 165.069 209.754 149.149 208.244C128.179 206.274 114.159 192.124 115.299 170.054C116.569 145.364 136.199 139.964 156.819 137.894C167.452 136.827 178.149 136.29 188.909 136.284C189.046 136.284 189.181 136.257 189.306 136.204C189.432 136.151 189.546 136.074 189.641 135.977C189.736 135.88 189.811 135.765 189.86 135.639C189.91 135.513 189.933 135.379 189.929 135.244C189.789 130.054 190.019 126.204 188.759 122.214C186.099 113.784 178.919 109.654 170.199 109.594C161.579 109.534 154.869 113.404 151.369 121.454C151.202 121.834 150.789 123.06 150.129 125.134C150.076 125.299 149.972 125.443 149.832 125.546C149.692 125.648 149.523 125.704 149.349 125.704H121.299C121.218 125.704 121.138 125.687 121.064 125.655C120.989 125.623 120.922 125.576 120.867 125.517C120.812 125.458 120.769 125.388 120.742 125.312C120.715 125.236 120.704 125.155 120.709 125.074C122.129 102.034 140.219 88.0738 162.159 85.8538C166.619 85.4071 172.526 85.3971 179.879 85.8238C183.379 86.0238 187.782 87.0371 193.089 88.8638C207.899 93.9538 217.089 105.794 219.679 121.544C220.889 128.924 220.689 136.414 220.689 144.034C220.696 170.267 220.696 190.647 220.689 205.174C220.689 205.373 220.611 205.563 220.472 205.704C220.334 205.845 220.145 205.924 219.949 205.924ZM189.409 154.994C182.582 155.014 174.656 155.504 165.629 156.464C157.689 157.304 149.239 159.714 147.699 168.544C146.349 176.214 150.059 183.464 158.019 184.804C169.159 186.67 178.329 183.474 185.529 175.214C190.229 169.824 190.039 163.404 190.049 155.634C190.049 155.464 189.982 155.301 189.862 155.181C189.742 155.061 189.579 154.994 189.409 154.994Z" fill="#FFCE31" style="fill:#FFCE31;fill:color(display-p3 1.0000 0.8078 0.1922);fill-opacity:1;"/>
<path d="M642.241 87.6038H611.921C611.706 87.6038 611.531 87.7784 611.531 87.9937V205.414C611.531 205.629 611.706 205.804 611.921 205.804H642.241C642.457 205.804 642.631 205.629 642.631 205.414V87.9937C642.631 87.7784 642.457 87.6038 642.241 87.6038Z" fill="black" style="fill:black;fill-opacity:1;"/>
<path d="M856.99 205.794H766.091C765.995 205.794 765.903 205.756 765.836 205.688C765.768 205.621 765.731 205.529 765.731 205.434V183.384C765.729 183.305 765.754 183.227 765.8 183.164L818.081 113.604C818.122 113.55 818.147 113.486 818.154 113.419C818.16 113.351 818.148 113.283 818.118 113.223C818.087 113.162 818.041 113.111 817.983 113.076C817.925 113.041 817.858 113.023 817.791 113.024H769.981C769.885 113.024 769.793 112.986 769.726 112.918C769.658 112.851 769.62 112.759 769.62 112.664V87.9637C769.62 87.8683 769.658 87.7767 769.726 87.7092C769.793 87.6417 769.885 87.6038 769.981 87.6038H855.161C855.256 87.6038 855.348 87.6417 855.415 87.7092C855.483 87.7767 855.521 87.8683 855.521 87.9637V109.974C855.519 110.054 855.491 110.131 855.44 110.194L801.19 179.844C801.149 179.897 801.124 179.962 801.117 180.029C801.111 180.096 801.123 180.164 801.153 180.225C801.184 180.285 801.23 180.336 801.288 180.371C801.346 180.407 801.413 180.425 801.481 180.424H856.99C857.086 180.424 857.178 180.462 857.245 180.529C857.313 180.597 857.351 180.688 857.351 180.784V205.434C857.351 205.529 857.313 205.621 857.245 205.688C857.178 205.756 857.086 205.794 856.99 205.794Z" fill="black" style="fill:black;fill-opacity:1;"/>
<path d="M346.83 88.3938C346.89 88.3948 346.948 88.41 347 88.4382C347.052 88.4664 347.097 88.5067 347.13 88.5557C347.163 88.6047 347.184 88.661 347.191 88.7198C347.199 88.7786 347.191 88.8383 347.17 88.8938C325.75 144.284 312.51 179.054 302.75 203.064C298.477 213.584 293.634 222.727 288.22 230.494C276.72 247.014 259.32 252.724 239.79 251.664C239.655 251.656 239.528 251.598 239.435 251.501C239.342 251.405 239.29 251.277 239.29 251.144V227.184C239.29 227.054 239.317 226.925 239.368 226.806C239.419 226.686 239.494 226.578 239.588 226.487C239.682 226.397 239.794 226.326 239.916 226.279C240.039 226.232 240.169 226.21 240.301 226.214C254.431 226.664 262.841 219.374 269.311 207.904C269.386 207.769 269.43 207.62 269.44 207.468C269.451 207.315 269.427 207.164 269.371 207.024L223.26 89.4138C223.215 89.2983 223.198 89.1732 223.212 89.0497C223.225 88.9262 223.269 88.8079 223.339 88.7053C223.409 88.6026 223.504 88.5187 223.614 88.4609C223.724 88.4032 223.846 88.3732 223.97 88.3738H256.23C256.309 88.374 256.386 88.399 256.45 88.4456C256.515 88.4921 256.564 88.5579 256.591 88.6338L285.41 170.974C285.421 171 285.439 171.022 285.462 171.038C285.485 171.053 285.513 171.062 285.54 171.062C285.568 171.062 285.596 171.053 285.619 171.038C285.642 171.022 285.66 171 285.67 170.974L313.771 88.9838C313.829 88.8112 313.94 88.6614 314.087 88.5555C314.234 88.4497 314.41 88.3931 314.591 88.3938H346.83Z" fill="#FFCE31" style="fill:#FFCE31;fill:color(display-p3 1.0000 0.8078 0.1922);fill-opacity:1;"/>
<path d="M596.672 101.06L577.952 101.027C577.521 101.027 577.171 101.375 577.171 101.806L577.17 101.846C577.17 102.277 577.518 102.627 577.949 102.627L596.669 102.66C597.1 102.661 597.45 102.312 597.45 101.881L597.45 101.841C597.451 101.411 597.103 101.061 596.672 101.06Z" fill="#E7B317" style="fill:#E7B317;fill:color(display-p3 0.9059 0.7020 0.0902);fill-opacity:1;"/>
<path d="M568.95 104.034C569.236 110.86 569.643 117.767 570.17 124.754C570.963 135.207 570.707 145.36 569.4 155.214C568.673 160.687 567.643 165.73 566.31 170.344C566.287 170.424 566.236 170.493 566.166 170.539C566.096 170.585 566.013 170.604 565.93 170.594L565.56 170.544C565.466 170.534 565.38 170.486 565.32 170.411C565.26 170.337 565.231 170.24 565.24 170.144C565.32 169.13 565.736 166.687 566.49 162.814C566.956 160.387 567.29 157.95 567.49 155.504C568.256 146.257 568.426 136.544 568 126.364C567.83 122.284 566.9 118.924 566.54 115.594C566.34 113.844 565.21 111.254 565.45 108.654L566.04 110.754C566.069 110.856 566.13 110.945 566.214 111.01C566.298 111.074 566.4 111.109 566.506 111.11C566.612 111.111 566.715 111.078 566.801 111.016C566.886 110.953 566.949 110.865 566.98 110.764L568.95 104.034Z" fill="#FFCE31" style="fill:#FFCE31;fill:color(display-p3 1.0000 0.8078 0.1922);fill-opacity:1;"/>
<path d="M598.892 105.364L599.362 108.394L579.012 108.414C578.939 108.415 578.868 108.389 578.811 108.342C578.755 108.294 578.716 108.228 578.702 108.154L578.232 105.654C578.224 105.618 578.225 105.582 578.233 105.546C578.242 105.511 578.259 105.479 578.282 105.451C578.305 105.423 578.334 105.4 578.367 105.385C578.4 105.37 578.436 105.363 578.472 105.364H598.892Z" fill="#FFCE31" style="fill:#FFCE31;fill:color(display-p3 1.0000 0.8078 0.1922);fill-opacity:1;"/>
<path d="M599.781 110.964L601.041 127.314L580.831 127.214L580.401 122.904L598.791 123.184C598.904 123.187 599.015 123.162 599.115 123.111C599.216 123.06 599.302 122.986 599.366 122.894C599.431 122.801 599.471 122.695 599.484 122.583C599.497 122.471 599.482 122.358 599.441 122.254L599.271 121.844C599.201 121.664 599.078 121.509 598.919 121.4C598.76 121.291 598.573 121.233 598.381 121.234L580.361 121.254L579.061 111.294C579.055 111.248 579.059 111.203 579.073 111.159C579.086 111.115 579.109 111.075 579.139 111.041C579.17 111.007 579.207 110.98 579.249 110.961C579.29 110.943 579.336 110.933 579.381 110.934L599.781 110.964Z" fill="#E7B317" style="fill:#E7B317;fill:color(display-p3 0.9059 0.7020 0.0902);fill-opacity:1;"/>
<path d="M580.399 122.904L580.359 121.254L598.379 121.234C598.571 121.233 598.759 121.291 598.917 121.4C599.076 121.509 599.199 121.664 599.269 121.844L599.439 122.254C599.481 122.358 599.496 122.471 599.482 122.583C599.469 122.695 599.429 122.801 599.365 122.894C599.3 122.986 599.214 123.06 599.113 123.111C599.013 123.162 598.902 123.187 598.789 123.184L580.399 122.904Z" fill="#D49102" style="fill:#D49102;fill:color(display-p3 0.8314 0.5686 0.0078);fill-opacity:1;"/>
<path d="M601.039 127.314C602.049 152.024 597.829 178.004 585.919 199.734C579.029 212.304 567.779 224.574 552.879 226.924C547.299 227.81 541.293 228.044 534.859 227.624C543.639 223.957 550.716 219.03 556.089 212.844C559.256 210.064 561.386 207.404 562.479 204.864C563.846 203.204 564.896 201.664 565.629 200.244C574.856 182.31 579.979 163.247 580.999 143.054C581.179 139.474 581.123 134.194 580.829 127.214L601.039 127.314Z" fill="#D49102" style="fill:#D49102;fill:color(display-p3 0.8314 0.5686 0.0078);fill-opacity:1;"/>
<path d="M506.901 157.694C508.421 164.414 510.904 170.684 514.351 176.504C519.211 184.684 525.851 190.334 536.171 187.394C528.284 191.367 521.314 190.184 515.261 183.844C509.934 178.264 506.308 171.117 504.381 162.404C504.369 162.358 504.375 162.308 504.399 162.264C504.423 162.22 504.463 162.184 504.511 162.164L504.861 162.024C504.888 162.016 504.916 162.018 504.94 162.029C504.964 162.041 504.982 162.06 504.991 162.084L507.741 168.374C507.762 168.422 507.796 168.463 507.838 168.494C507.88 168.525 507.93 168.544 507.981 168.549C508.032 168.554 508.084 168.545 508.129 168.523C508.175 168.501 508.214 168.467 508.241 168.424C508.554 167.937 508.594 167.447 508.361 166.954C506.761 163.62 506.274 160.534 506.901 157.694Z" fill="#FEFB75" style="fill:#FEFB75;fill:color(display-p3 0.9961 0.9843 0.4588);fill-opacity:1;"/>
<path d="M490.68 166.514C492.74 175.96 496.26 184.837 501.24 193.144C505.76 200.684 511.766 206.284 519.26 209.944C517.766 210.91 516.06 211.52 514.14 211.774C513.794 211.819 513.446 211.764 513.14 211.614C511.03 210.594 509.49 210.094 507.63 208.624C496.88 200.124 490.06 187.634 487.02 174.334C489.006 175.374 490.533 176.934 491.6 179.014C491.609 179.042 491.629 179.065 491.655 179.078C491.681 179.091 491.712 179.093 491.74 179.084C491.767 179.074 491.79 179.055 491.804 179.028C491.817 179.002 491.819 178.972 491.81 178.944L489.35 165.894C489.344 165.846 489.355 165.797 489.381 165.757C489.407 165.716 489.446 165.686 489.492 165.67C489.537 165.655 489.587 165.656 489.632 165.673C489.677 165.69 489.715 165.722 489.74 165.764C489.993 166.237 490.306 166.487 490.68 166.514Z" fill="#FEFB75" style="fill:#FEFB75;fill:color(display-p3 0.9961 0.9843 0.4588);fill-opacity:1;"/>
</svg>
